# xmcd
#
# Track frame offsets:
#	150
#	19489
#	35997
#	53769
#	70677
#	90158
#	108382
#	123849
#	143758
#	161129
#	182033
#	221283
#	238109
#	253833
#
# Disc length: 3701 seconds
#
# Revision: 2
# Processed by: cddbd v1.5.2PL0 Copyright (c) Steve Scherf et al.
# Submitted via: audiograbber 1.83.01
#
DISCID=c30e730e
DTITLE=Steven Seagal - Mojo Priest
DYEAR=2007
DGENRE=Blues
TTITLE0=Somewhere in  Between
TTITLE1=Love Doctor
TTITLE2=Dark Angel
TTITLE3=Gunfire in a Juke Joint
TTITLE4=My Time is Numberd
TTITLE5=Alloigator Ass
TTITLE6=BBQ
TTITLE7=Hoochie Coochie Man
TTITLE8=Talk to my Ass
TTITLE9=Dust my Broom
TTITLE10=Slow Boat to China
TTITLE11=She Dat Pretty
TTITLE12=Red Rooster
TTITLE13=Shake
EXTD=
EXTT0=
EXTT1=
EXTT2=
EXTT3=
EXTT4=
EXTT5=
EXTT6=
EXTT7=
EXTT8=
EXTT9=
EXTT10=
EXTT11=
EXTT12=
EXTT13=
PLAYORDER=
